<svg width="183" height="50" viewBox="0 0 183 50" fill="none" xmlns="http://www.w3.org/2000/svg">
<path d="M13.6786 11.9051C10.6462 12.4398 9.32977 16.0566 11.309 18.4154L20.3352 29.1724C22.3145 31.5312 26.105 30.8629 27.1582 27.9694L31.9609 14.774C33.014 11.8805 30.5399 8.93196 27.5075 9.46666L13.6786 11.9051Z" fill="white"/>
<path d="M46.7164 37.7895C49.7488 37.2548 51.0653 33.6379 49.086 31.2791L40.0598 20.5222C38.0805 18.1634 34.29 18.8317 33.2369 21.7252L28.4341 34.9206C27.381 37.8141 29.8551 40.7626 32.8875 40.2279L46.7164 37.7895Z" fill="#66CCC1"/>
<path d="M67.6253 35.8472V14.9672H72.3353V35.8472H67.6253ZM60.9953 18.7772V14.6672H78.9653V18.7772H60.9953ZM78.275 35.8472V21.2672H82.865V35.8472H78.275ZM82.865 27.8372L80.945 26.3372C81.325 24.6372 81.965 23.3172 82.865 22.3772C83.765 21.4372 85.015 20.9672 86.615 20.9672C87.315 20.9672 87.925 21.0772 88.445 21.2972C88.985 21.4972 89.455 21.8172 89.855 22.2572L87.125 25.7072C86.925 25.4872 86.675 25.3172 86.375 25.1972C86.075 25.0772 85.735 25.0172 85.355 25.0172C84.595 25.0172 83.985 25.2572 83.525 25.7372C83.085 26.1972 82.865 26.8972 82.865 27.8372ZM96.7576 36.1472C95.4176 36.1472 94.2176 35.8172 93.1576 35.1572C92.1176 34.4972 91.2876 33.5972 90.6676 32.4572C90.0676 31.3172 89.7676 30.0172 89.7676 28.5572C89.7676 27.0972 90.0676 25.7972 90.6676 24.6572C91.2876 23.5172 92.1176 22.6172 93.1576 21.9572C94.2176 21.2972 95.4176 20.9672 96.7576 20.9672C97.7376 20.9672 98.6176 21.1572 99.3976 21.5372C100.198 21.9172 100.848 22.4472 101.348 23.1272C101.848 23.7872 102.128 24.5472 102.188 25.4072V31.7072C102.128 32.5672 101.848 33.3372 101.348 34.0172C100.868 34.6772 100.228 35.1972 99.4276 35.5772C98.6276 35.9572 97.7376 36.1472 96.7576 36.1472ZM97.6876 32.0072C98.6676 32.0072 99.4576 31.6872 100.058 31.0472C100.658 30.3872 100.958 29.5572 100.958 28.5572C100.958 27.8772 100.818 27.2772 100.538 26.7572C100.278 26.2372 99.8976 25.8372 99.3976 25.5572C98.9176 25.2572 98.3576 25.1072 97.7176 25.1072C97.0776 25.1072 96.5076 25.2572 96.0076 25.5572C95.5276 25.8372 95.1376 26.2372 94.8376 26.7572C94.5576 27.2772 94.4176 27.8772 94.4176 28.5572C94.4176 29.2172 94.5576 29.8072 94.8376 30.3272C95.1176 30.8472 95.5076 31.2572 96.0076 31.5572C96.5076 31.8572 97.0676 32.0072 97.6876 32.0072ZM100.778 35.8472V31.9172L101.468 28.3772L100.778 24.8372V21.2672H105.278V35.8472H100.778ZM113.099 35.8472L106.919 21.2672H111.869L116.069 33.4172H113.909L118.109 21.2672H122.969L116.789 35.8172L113.099 35.8472ZM131.413 36.1772C129.833 36.1772 128.423 35.8572 127.183 35.2172C125.963 34.5572 125.003 33.6472 124.303 32.4872C123.603 31.3272 123.253 30.0172 123.253 28.5572C123.253 27.0972 123.593 25.7972 124.273 24.6572C124.973 23.4972 125.913 22.5872 127.093 21.9272C128.273 21.2672 129.603 20.9372 131.083 20.9372C132.523 20.9372 133.793 21.2472 134.893 21.8672C135.993 22.4872 136.853 23.3472 137.473 24.4472C138.113 25.5472 138.433 26.8072 138.433 28.2272C138.433 28.4872 138.413 28.7672 138.373 29.0672C138.353 29.3472 138.303 29.6772 138.223 30.0572L125.653 30.0872V26.9372L136.273 26.9072L134.293 28.2272C134.273 27.3872 134.143 26.6972 133.903 26.1572C133.663 25.5972 133.303 25.1772 132.823 24.8972C132.363 24.5972 131.793 24.4472 131.113 24.4472C130.393 24.4472 129.763 24.6172 129.223 24.9572C128.703 25.2772 128.293 25.7372 127.993 26.3372C127.713 26.9372 127.573 27.6672 127.573 28.5272C127.573 29.3872 127.723 30.1272 128.023 30.7472C128.343 31.3472 128.783 31.8172 129.343 32.1572C129.923 32.4772 130.603 32.6372 131.383 32.6372C132.103 32.6372 132.753 32.5172 133.333 32.2772C133.913 32.0172 134.423 31.6372 134.863 31.1372L137.383 33.6572C136.663 34.4972 135.793 35.1272 134.773 35.5472C133.753 35.9672 132.633 36.1772 131.413 36.1772ZM140.648 35.8472V21.2672H145.238V35.8472H140.648ZM145.238 27.8372L143.318 26.3372C143.698 24.6372 144.338 23.3172 145.238 22.3772C146.138 21.4372 147.388 20.9672 148.988 20.9672C149.688 20.9672 150.298 21.0772 150.818 21.2972C151.358 21.4972 151.828 21.8172 152.228 22.2572L149.498 25.7072C149.298 25.4872 149.048 25.3172 148.748 25.1972C148.448 25.0772 148.108 25.0172 147.728 25.0172C146.968 25.0172 146.358 25.2572 145.898 25.7372C145.458 26.1972 145.238 26.8972 145.238 27.8372ZM158.439 36.2072C157.579 36.2072 156.729 36.0972 155.889 35.8772C155.069 35.6572 154.299 35.3472 153.579 34.9472C152.879 34.5272 152.279 34.0472 151.779 33.5072L154.389 30.8672C154.869 31.3872 155.439 31.7972 156.099 32.0972C156.759 32.3772 157.479 32.5172 158.259 32.5172C158.799 32.5172 159.209 32.4372 159.489 32.2772C159.789 32.1172 159.939 31.8972 159.939 31.6172C159.939 31.2572 159.759 30.9872 159.399 30.8072C159.059 30.6072 158.619 30.4372 158.079 30.2972C157.539 30.1372 156.969 29.9672 156.369 29.7872C155.769 29.6072 155.199 29.3572 154.659 29.0372C154.119 28.7172 153.679 28.2772 153.339 27.7172C152.999 27.1372 152.829 26.4072 152.829 25.5272C152.829 24.5872 153.069 23.7772 153.549 23.0972C154.029 22.3972 154.709 21.8472 155.589 21.4472C156.469 21.0472 157.499 20.8472 158.679 20.8472C159.919 20.8472 161.059 21.0672 162.099 21.5072C163.159 21.9272 164.019 22.5572 164.679 23.3972L162.069 26.0372C161.609 25.4972 161.089 25.1172 160.509 24.8972C159.949 24.6772 159.399 24.5672 158.859 24.5672C158.339 24.5672 157.949 24.6472 157.689 24.8072C157.429 24.9472 157.299 25.1572 157.299 25.4372C157.299 25.7372 157.469 25.9772 157.809 26.1572C158.149 26.3372 158.589 26.4972 159.129 26.6372C159.669 26.7772 160.239 26.9472 160.839 27.1472C161.439 27.3472 162.009 27.6172 162.549 27.9572C163.089 28.2972 163.529 28.7572 163.869 29.3372C164.209 29.8972 164.379 30.6372 164.379 31.5572C164.379 32.9772 163.839 34.1072 162.759 34.9472C161.699 35.7872 160.259 36.2072 158.439 36.2072ZM174.069 36.1772C172.489 36.1772 171.079 35.8572 169.839 35.2172C168.619 34.5572 167.659 33.6472 166.959 32.4872C166.259 31.3272 165.909 30.0172 165.909 28.5572C165.909 27.0972 166.249 25.7972 166.929 24.6572C167.629 23.4972 168.569 22.5872 169.749 21.9272C170.929 21.2672 172.259 20.9372 173.739 20.9372C175.179 20.9372 176.449 21.2472 177.549 21.8672C178.649 22.4872 179.509 23.3472 180.129 24.4472C180.769 25.5472 181.089 26.8072 181.089 28.2272C181.089 28.4872 181.069 28.7672 181.029 29.0672C181.009 29.3472 180.959 29.6772 180.879 30.0572L168.309 30.0872V26.9372L178.929 26.9072L176.949 28.2272C176.929 27.3872 176.799 26.6972 176.559 26.1572C176.319 25.5972 175.959 25.1772 175.479 24.8972C175.019 24.5972 174.449 24.4472 173.769 24.4472C173.049 24.4472 172.419 24.6172 171.879 24.9572C171.359 25.2772 170.949 25.7372 170.649 26.3372C170.369 26.9372 170.229 27.6672 170.229 28.5272C170.229 29.3872 170.379 30.1272 170.679 30.7472C170.999 31.3472 171.439 31.8172 171.999 32.1572C172.579 32.4772 173.259 32.6372 174.039 32.6372C174.759 32.6372 175.409 32.5172 175.989 32.2772C176.569 32.0172 177.079 31.6372 177.519 31.1372L180.039 33.6572C179.319 34.4972 178.449 35.1272 177.429 35.5472C176.409 35.9672 175.289 36.1772 174.069 36.1772Z" fill="white"/>
</svg>
